<?xml version="1.0" encoding="utf-8"?>
<!-- Generator: Adobe Illustrator 27.5.0, SVG Export Plug-In . SVG Version: 6.00 Build 0)  -->
<svg version="1.1" id="Capa_1" xmlns="http://www.w3.org/2000/svg" xmlns:xlink="http://www.w3.org/1999/xlink" x="0px" y="0px"
	 viewBox="0 0 180 180" style="enable-background:new 0 0 180 180;" xml:space="preserve">
<style type="text/css">
	.st0{fill:#707070;}
	.st1{fill:#0DA022;stroke:#F9F9F9;stroke-width:2;stroke-miterlimit:10;}
	.st2{fill:#F41414;stroke:#F9F9F9;stroke-width:2;stroke-miterlimit:10;}
	.st3{fill:#E2CA3B;stroke:#F9F9F9;stroke-width:2;stroke-miterlimit:10;}
</style>
<path class="st0" d="M96.8,17.5c36.3,0,65.7,29.4,65.7,65.7c0,3.8-3,6.8-6.8,6.8s-6.8-3-6.8-6.8c0-28.8-23.3-52.1-52.1-52.1
	c-3.8,0-6.8-3-6.8-6.8S93,17.5,96.8,17.5z M99.1,71.9c5,0,9.1,4.1,9.1,9.1s-4.1,9.1-9.1,9.1c-5,0-9.1-4.1-9.1-9.1
	S94.1,71.9,99.1,71.9z M90,51.5c0-3.8,3-6.8,6.8-6.8c21.3,0,38.5,17.2,38.5,38.5c0,3.8-3,6.8-6.8,6.8s-6.8-3-6.8-6.8
	c0-13.8-11.2-24.9-24.9-24.9C93,58.3,90,55.3,90,51.5z M50.8,17.9c5.5-1.5,11.2,1.3,13.4,6.6l11.3,27.2c1.9,4.6,0.6,10-3.3,13.1
	l-14,11.4c9.4,19.9,25.6,36.1,45.5,45.5l11.4-14c3.2-3.9,8.5-5.2,13.1-3.3l27.2,11.3c5.3,2.2,8.1,7.9,6.6,13.4l-6.8,24.9
	c-1.3,4.9-5.8,8.4-10.9,8.4c-70.1,0-126.9-56.8-126.9-126.9c0-5.1,3.4-9.6,8.4-10.9C25.9,24.7,50.8,17.9,50.8,17.9z"/>
<path class="st1" d="M171.9,94.8c4.1-4.3,4.1-11.3,0-15.6c-4.1-4.3-10.7-4.3-14.7,0l-48.1,51l-20.4-21.6c-4.1-4.3-10.7-4.3-14.7,0
	s-4.1,11.3,0,15.6l27.7,29.4c4.1,4.3,10.7,4.3,14.7,0L171.9,94.8z"/>
</svg>
