<?xml version="1.0" encoding="utf-8"?>
<!-- Generator: Adobe Illustrator 27.5.0, SVG Export Plug-In . SVG Version: 6.00 Build 0)  -->
<svg version="1.1" id="Capa_1" xmlns="http://www.w3.org/2000/svg" xmlns:xlink="http://www.w3.org/1999/xlink" x="0px" y="0px"
	 viewBox="0 0 180 180" style="enable-background:new 0 0 180 180;" xml:space="preserve">
<style type="text/css">
	.st0{fill:#707070;}
	.st1{fill:#0DA022;stroke:#F9F9F9;stroke-width:2;stroke-miterlimit:10;}
	.st2{fill:#F41414;stroke:#F9F9F9;stroke-width:2;stroke-miterlimit:10;}
	.st3{fill:#E2CA3B;stroke:#F9F9F9;stroke-width:2;stroke-miterlimit:10;}
	.st4{font-family:'ArialRoundedMTBold';}
	.st5{font-size:135.2217px;}
</style>
<g>
	<g>
		<path class="st0" d="M164.2,128.2c0.1,7.8,0.1,15.6,0.1,23.3c0,2.5,0.1,4.9-0.2,7.4c-0.5,4.7-4.5,7.9-9.7,7.9
			c-42.9,0-85.9-0.1-128.8,0c-5.3,0-10.2-3.9-10.1-9.3c0-2.4,0-4.8,0-7.2c0-28.9-0.2-56.8,0-86.8c0-0.9,0.3-1.2,1.3-1.1
			c1.9,0.1,3.7,0,5.6,0c44.4,0,88.8,0,133.3,0c2.9,0,5.7,0,8.7,0c0,7.9,0,56.3,0,64.2c2.2,3,1.9,0.6,2.2,1c1.3,1.7,1-41.8,1-43.3
			c-0.4-14.6,0-29.2-0.1-43.8c0-0.8-0.1-1.7-0.2-2.5c-0.6-4.8-4.5-8.4-9.9-8.6c-4-0.2-8-0.1-11.9-0.1c-0.3,0-0.7,0.2-0.8,0.2
			c0,1.3,0,2.5,0,3.6c0,2.3-0.2,4.5,1.5,6.7c2.3,3,1.6,7.7-1.2,10.4c-3.3,3.3-7.8,3.9-11.8,2.3c-5.2-2-8-8.1-4.5-13.4
			c0.7-1.1,1.1-2.4,1.3-3.6c0.2-1.2,0.1-2.5,0.1-3.8c-0.1-2.5-0.1-2.5-2.8-2.5c-25.3,0-50.7,0-76,0.1c-0.4,0-0.9,0.1-1.3,0.1
			c0,2,0.1,3.8,0,5.6c-0.1,1.7,0.3,3.1,1.3,4.5c2.2,3.1,2,7.1-0.4,10c-2.7,3.2-6.9,4.5-11,3.5c-6.1-1.5-9.7-8.2-5.9-13.8
			c0.5-0.7,1.1-1.5,1.2-2.2c0.2-2.5,0.1-5,0.1-7.6c0,0-0.2-0.1-0.3-0.1c-4.1,0-8.2-0.2-12.2,0c-4.7,0.2-8,2.6-9.4,6.7
			c-0.7,1.9-0.6,4.1-0.6,6.2c0,38.2,0,76.4-0.1,114.6c0,5.9,4.4,12.6,13.7,12.5c43-0.2,86-0.1,128.9-0.1c1.1,0,2.3-0.1,3.4-0.5
			c5.2-1.5,8.6-5.7,8.7-10.9c0.2-10.9,0.1-21.8,0.2-32.7c0-0.4-0.2-0.8-0.3-1.4C165.6,125.3,164.2,126.3,164.2,128.2z"/>
		<path class="st0" d="M30.1,150.8c8.3,0,16.5,0,24.9,0c0-7.7,0-15.3,0-22.9c-8.3,0-16.6,0-24.9,0C30.1,135.6,30.1,143.2,30.1,150.8
			z"/>
		<path class="st0" d="M55,100.6c0-1.1-0.4-1.4-1.5-1.3c-7.4,0-14.7,0-22.1,0c-1,0-1.3,0.3-1.3,1.1c0,3.5,0,6.9,0,10.4c0,0,0,0,0,0
			c0,3.4,0.1,6.9,0,10.3c0,1.1,0.3,1.3,1.4,1.2c6.9,0,13.9,0,20.8,0c0.6,0,1.2-0.1,1.8-0.1c0.8,0,1-0.4,1-1
			C55,114.3,55,107.4,55,100.6z"/>
		<path class="st0" d="M61.9,150.9c8.3,0,16.3,0,24.6,0c0-7.7,0-15.3,0-22.9c-8.3,0-16.4,0-24.6,0C61.9,135.6,61.9,143.2,61.9,150.9
			z"/>
		<path class="st0" d="M85.4,99.2c-7.3,0.1-14.6,0.1-21.9,0.1c-1.8,0-1.7,0-1.7,1.6c0,6.6,0,13.2-0.1,19.8c0,1.2,0.3,1.5,1.6,1.5
			c7.3,0,14.6,0,21.9,0c1.2,0,1.5-0.3,1.5-1.4c-0.1-3.4,0-6.8,0-10.2c0,0,0,0,0,0c0-3.4,0-6.9,0-10.3C86.7,99.6,86.5,99.2,85.4,99.2
			z"/>
		<path class="st0" d="M35.5,93.5c6.1,0,12.2,0.1,18.3,0.2c1,0,1.1-0.4,1.1-1.1c0-5.2,0-10.4,0-15.6c0-2.1,0-4.2,0-6.3
			c-8.4,0-16.6,0-24.8,0c0,7.7,0,15.3,0,22.8C32,93.5,33.8,93.5,35.5,93.5z"/>
		<path class="st0" d="M118.3,70.7c-8.3,0-16.5,0-24.8,0c0,7.6,0,15.2,0,22.9c8.3,0,16.5,0,24.8,0C118.3,85.9,118.3,78.3,118.3,70.7
			z"/>
		<path class="st0" d="M85.3,93.5c1.2,0,1.4-0.4,1.4-1.3c-0.1-3,0-5.9,0-8.9c0-4.2,0-8.4,0-12.6c-8.3,0-16.5,0-24.7,0
			c0,7.7,0,15.3,0,22.8c0.3,0.1,0.3,0.1,0.4,0.1C70,93.6,77.6,93.5,85.3,93.5z"/>
		<path class="st0" d="M39.3,46.6c2,0.9,4.1,0.9,6.2,0.2c2.3-0.8,3.8-2.2,3.7-4.6c0-4.4,0-8.9,0-13.3c0-2.2,0-4.4,0-6.6
			c0-2.3,0-4.5-0.1-6.8c-0.1-2.4-1.5-4.1-4.1-4.6c-1.4-0.3-3.1-0.3-4.5,0c-3,0.5-4.4,2.3-4.5,5c0,1.8,0,3.7,0,5.5
			c0,6.9,0,13.7,0,20.6C36.1,44.1,37.2,45.7,39.3,46.6z"/>
		<path class="st0" d="M134.5,46.8c2,0.6,3.9,0.6,5.8-0.1c2.3-0.8,3.6-2.2,3.6-4.6c0-8.8,0-17.6,0-26.4c0-2.4-1.4-3.9-3.8-4.7
			c-2.3-0.8-4.5-0.6-6.7,0.5c-1.8,0.9-2.6,2.3-2.6,4.1c0,4.5,0,8.9,0,13.4c0,0,0,0,0,0c0,4.5,0,8.9,0,13.4
			C130.9,44.6,132.2,46.1,134.5,46.8z"/>
		<path class="st0" d="M151.2,92.2c-0.1-3,0-6,0-9c0-4.2,0-8.5,0-12.7c-8.3,0-16.5,0-24.7,0c0,7.7,0,15.4,0,23
			c0.3,0.1,0.3,0.1,0.4,0.1c7.6,0,15.3-0.1,22.9-0.1C150.9,93.6,151.2,93.2,151.2,92.2z"/>
		<path class="st0" d="M93.6,152.4c8.3,0,16.5,0,24.9,0c0-7.7,0-15.3,0-22.9c-8.3,0-16.6,0-24.9,0C93.6,137.2,93.6,144.8,93.6,152.4
			z"/>
		<path class="st0" d="M118.5,102.1c0-1.1-0.4-1.4-1.5-1.3c-7.4,0-14.7,0-22.1,0c-1,0-1.3,0.3-1.3,1.1c0,3.5,0,6.9,0,10.4
			c0,0,0,0,0,0c0,3.4,0.1,6.9,0,10.3c0,1.1,0.3,1.3,1.4,1.2c6.9,0,13.9,0,20.8,0c0.6,0,1.2-0.1,1.8-0.1c0.8,0,1-0.4,1-1
			C118.5,115.9,118.4,109,118.5,102.1z"/>
		<path class="st0" d="M125.4,152.4c8.3,0,16.3,0,24.6,0c0-7.7,0-15.3,0-22.9c-8.3,0-16.4,0-24.6,0
			C125.4,137.2,125.4,144.8,125.4,152.4z"/>
		<path class="st0" d="M148.8,100.8c-7.3,0.1-14.6,0.1-21.9,0.1c-1.8,0-1.7,0-1.7,1.6c0,6.6,0,13.2-0.1,19.8c0,1.2,0.3,1.5,1.6,1.5
			c7.3,0,14.6,0,21.9,0c1.2,0,1.5-0.3,1.5-1.4c-0.1-3.4,0-6.8,0-10.2c0,0,0,0,0,0c0-3.4,0-6.9,0-10.3
			C150.2,101.2,149.9,100.8,148.8,100.8z"/>
	</g>
</g>
<text transform="matrix(1.4357 0 0 1 92.3525 131.4766)" class="st2 st4 st5">ยก</text>
</svg>
